<?xml version="1.0" standalone="no"?>
<!DOCTYPE svg PUBLIC "-//W3C//DTD SVG 20010904//EN"
 "http://www.w3.org/TR/2001/REC-SVG-20010904/DTD/svg10.dtd">
<svg version="1.0" xmlns="http://www.w3.org/2000/svg"
 width="1877.000000pt" height="570.000000pt" viewBox="0 0 1877.000000 570.000000"
 preserveAspectRatio="xMidYMid meet">

<g transform="translate(0.000000,570.000000) scale(0.100000,-0.100000)"
fill="#000000" stroke="none">
<path d="M2315 5544 c-16 -2 -73 -9 -125 -15 -670 -76 -1223 -422 -1614 -1012
-365 -550 -501 -1246 -391 -2000 52 -355 189 -729 362 -992 330 -501 822 -838
1402 -959 365 -77 786 -79 1131 -5 762 164 1425 803 1614 1554 29 116 56 257
56 291 l0 24 -145 0 c-142 0 -145 0 -149 -22 -56 -267 -103 -414 -187 -588
-254 -526 -724 -890 -1291 -999 -311 -60 -687 -52 -1003 21 -738 170 -1294
765 -1470 1574 -43 198 -58 350 -58 604 -1 433 63 736 228 1075 121 250 260
442 466 640 247 238 520 392 844 474 507 130 1114 69 1533 -154 412 -219 685
-538 818 -955 20 -63 38 -121 40 -127 2 -10 41 -13 149 -13 80 0 145 4 145 8
0 5 -15 64 -34 133 -199 725 -721 1215 -1470 1384 -203 45 -307 56 -571 60
-137 2 -263 1 -280 -1z"/>
<path d="M2380 4974 c-190 -14 -403 -60 -565 -121 -511 -194 -925 -684 -1075
-1274 -30 -117 -37 -109 93 -109 l112 0 24 90 c74 284 239 560 468 781 214
207 447 330 739 390 144 30 449 37 604 15 348 -50 627 -188 846 -417 93 -98
145 -171 203 -286 l41 -83 116 0 116 0 -6 28 c-13 50 -113 248 -165 326 -240
356 -612 573 -1094 641 -107 15 -363 26 -457 19z"/>
<path d="M2310 4629 c-347 -40 -633 -176 -860 -409 -351 -359 -512 -847 -460
-1394 23 -240 74 -425 170 -621 162 -327 462 -589 808 -705 183 -61 275 -74
527 -74 205 -1 241 1 334 22 288 65 477 168 687 377 169 168 271 326 339 527
13 36 21 69 17 72 -3 3 -47 6 -97 6 l-92 0 -33 -85 c-63 -163 -154 -298 -286
-426 -91 -87 -165 -139 -281 -198 -177 -88 -344 -124 -583 -124 -387 1 -684
116 -925 357 -181 182 -308 419 -363 676 -91 423 -31 863 162 1184 254 424
643 646 1131 646 298 0 544 -71 759 -220 78 -54 219 -193 251 -248 l19 -32
108 0 c59 0 108 2 108 5 0 3 -18 36 -41 73 -179 294 -470 493 -834 566 -171
34 -396 44 -565 25z"/>
<path d="M5660 2855 l0 -1395 175 0 175 0 0 608 c0 670 0 667 63 786 47 89
127 165 221 212 l80 39 126 0 c122 0 127 -1 192 -33 79 -39 136 -99 178 -186
58 -122 60 -155 60 -821 l0 -605 175 0 176 0 -4 667 c-3 651 -4 670 -25 751
-88 332 -323 525 -637 525 -218 -1 -459 -126 -575 -301 l-30 -45 0 596 0 597
-175 0 -175 0 0 -1395z"/>
<path d="M14215 4119 c-132 -8 -386 -36 -417 -45 -17 -5 -18 -76 -18 -1305 0
-1031 3 -1300 13 -1304 35 -12 341 -26 561 -26 282 -1 417 13 610 61 536 135
847 463 958 1012 30 151 33 492 5 632 -37 184 -97 333 -188 467 -54 82 -196
223 -276 278 -287 193 -682 266 -1248 230z m553 -285 c262 -39 485 -155 618
-322 60 -76 140 -238 164 -335 55 -219 53 -494 -5 -724 -25 -99 -93 -252 -144
-327 -147 -214 -392 -352 -704 -397 -90 -13 -416 -16 -514 -4 l-63 7 0 1044
c0 574 3 1044 8 1045 4 0 50 6 102 13 135 20 409 19 538 0z"/>
<path d="M9815 4091 c-115 -53 -158 -186 -97 -302 81 -156 324 -139 388 27 31
83 0 204 -65 251 -62 46 -157 56 -226 24z"/>
<path d="M12840 2785 l0 -1325 175 0 175 0 -2 1323 -3 1322 -172 3 -173 2 0
-1325z"/>
<path d="M16390 2785 l0 -1325 745 0 745 0 0 145 0 145 -570 0 -570 0 0 475 0
475 510 0 510 0 0 145 0 145 -510 0 -510 0 0 415 0 415 540 0 540 0 0 145 0
145 -715 0 -715 0 0 -1325z"/>
<path d="M8325 3399 c-49 -5 -128 -19 -175 -30 -148 -37 -326 -117 -317 -143
2 -6 19 -56 37 -111 18 -55 34 -102 36 -104 2 -2 34 12 71 31 210 109 481 135
644 62 61 -28 134 -95 163 -152 24 -47 46 -149 46 -218 l0 -61 -147 -6 c-613
-27 -964 -260 -990 -658 -14 -209 84 -407 252 -508 161 -97 426 -110 618 -29
83 34 177 100 239 165 31 33 60 58 63 55 3 -3 5 -17 5 -30 0 -14 5 -65 11
-114 l12 -88 158 0 159 0 -6 43 c-3 23 -8 49 -12 57 -3 8 -9 292 -13 630 -6
504 -10 627 -22 681 -79 330 -264 493 -602 529 -100 11 -104 11 -230 -1z m513
-1177 l-3 -207 -33 -67 c-60 -122 -161 -211 -283 -249 -77 -24 -216 -26 -282
-3 -65 22 -139 91 -167 155 -45 107 -35 254 25 349 90 143 323 224 658 229
l89 1 -4 -208z"/>
<path d="M11500 3400 c-207 -28 -411 -154 -510 -315 l-25 -40 -8 145 c-5 80
-10 151 -12 158 -3 9 -44 12 -161 12 -145 0 -156 -1 -148 -17 4 -10 10 -438
12 -950 l4 -933 174 0 174 0 0 608 c0 664 0 663 59 780 58 114 166 207 285
244 92 29 250 22 328 -14 106 -49 182 -149 225 -295 15 -52 18 -128 21 -690
l3 -633 175 0 175 0 -4 663 c-4 723 -3 711 -65 870 -75 194 -229 334 -422 386
-93 24 -195 32 -280 21z"/>
<path d="M9730 2410 l0 -950 175 0 175 0 0 950 0 950 -175 0 -175 0 0 -950z"/>
<path d="M710 2577 c0 -28 61 -257 90 -342 120 -342 368 -661 669 -862 447
-298 1112 -378 1649 -198 448 150 856 550 1017 995 35 99 75 247 67 254 -3 3
-54 6 -114 6 -125 0 -105 18 -158 -145 -72 -225 -185 -411 -350 -575 -154
-155 -348 -276 -540 -339 -396 -129 -915 -95 -1272 84 -411 204 -695 585 -818
1093 l-11 42 -114 0 c-87 0 -115 -3 -115 -13z"/>
<path d="M10582 1114 c-36 -25 -47 -54 -52 -139 l-5 -80 -47 -3 -48 -3 0 -40
0 -39 50 0 50 0 0 -225 0 -225 50 0 50 0 0 225 0 225 60 0 60 0 0 40 0 39 -57
3 -58 3 0 57 c1 80 22 102 92 96 52 -5 52 -4 67 31 18 46 11 49 -104 50 -62 1
-92 -3 -108 -15z"/>
<path d="M14250 745 l0 -385 55 0 55 0 0 385 0 385 -55 0 -55 0 0 -385z"/>
<path d="M8873 1100 c-60 -14 -120 -57 -142 -103 -29 -60 -28 -140 2 -184 28
-42 113 -86 202 -106 154 -34 235 -83 235 -143 0 -51 -27 -94 -72 -114 -118
-54 -260 0 -292 110 -7 25 -16 44 -20 43 -3 -1 -27 -5 -52 -9 -25 -3 -48 -13
-51 -20 -7 -19 40 -115 73 -148 55 -54 99 -70 215 -74 212 -8 318 63 319 213
0 66 -25 112 -85 153 -47 32 -68 39 -234 83 -101 26 -145 59 -143 107 1 46 19
72 65 93 102 46 222 7 257 -85 9 -26 13 -28 48 -22 68 13 73 16 66 39 -26 84
-79 138 -160 163 -50 15 -177 17 -231 4z"/>
<path d="M10250 1055 l0 -55 55 0 55 0 0 55 0 55 -55 0 -55 0 0 -55z"/>
<path d="M11913 1100 c-60 -14 -120 -57 -142 -103 -29 -60 -28 -140 2 -184 28
-42 113 -86 202 -106 154 -34 235 -83 235 -143 0 -51 -27 -94 -72 -114 -118
-54 -260 0 -292 110 -7 25 -16 44 -20 43 -3 -1 -27 -5 -52 -9 -25 -3 -48 -13
-51 -20 -7 -19 40 -115 73 -148 55 -54 99 -70 215 -74 212 -8 318 63 319 213
0 66 -25 112 -85 153 -47 32 -68 39 -234 83 -101 26 -145 59 -143 107 1 46 19
72 65 93 102 46 222 7 257 -85 9 -26 13 -28 48 -22 68 13 73 16 66 39 -26 84
-79 138 -160 163 -50 15 -177 17 -231 4z"/>
<path d="M12450 1055 l0 -55 55 0 55 0 0 55 0 55 -55 0 -55 0 0 -55z"/>
<path d="M15853 1100 c-60 -14 -120 -57 -142 -103 -29 -60 -28 -140 2 -184 28
-42 113 -86 202 -106 154 -34 235 -83 235 -143 0 -51 -27 -94 -72 -114 -118
-54 -260 0 -292 110 -7 25 -16 44 -20 43 -3 -1 -27 -5 -52 -9 -25 -3 -48 -13
-51 -20 -7 -19 40 -115 73 -148 55 -54 99 -70 215 -74 212 -8 318 63 319 213
0 66 -25 112 -85 153 -47 32 -68 39 -234 83 -101 26 -145 59 -143 107 1 46 19
72 65 93 102 46 222 7 257 -85 9 -26 13 -28 48 -22 68 13 73 16 66 39 -26 84
-79 138 -160 163 -50 15 -177 17 -231 4z"/>
<path d="M10898 1078 l-37 -10 -3 -86 -3 -87 -42 -3 c-43 -3 -43 -3 -43 -43
l0 -39 44 0 45 0 3 -201 3 -201 33 -29 c29 -26 39 -29 100 -29 82 0 107 14 97
53 -6 24 -11 26 -50 25 -74 -4 -75 0 -75 203 l0 179 60 0 60 0 0 40 0 40 -60
0 -60 0 0 100 c0 111 3 108 -72 88z"/>
<path d="M18408 1078 l-37 -10 -3 -86 -3 -87 -45 -5 c-27 -3 -59 0 -80 8 -66
27 -143 1 -180 -61 l-20 -32 0 43 0 42 -55 0 -55 0 0 -265 0 -265 55 0 55 0 0
168 c0 144 3 173 20 210 24 53 73 78 129 66 20 -4 40 -8 44 -8 5 -1 17 17 27
39 l18 40 1 -32 c1 -32 2 -33 45 -33 l45 0 3 -201 3 -201 33 -29 c29 -26 39
-29 100 -29 82 0 107 14 97 53 -6 24 -11 26 -50 25 -74 -4 -75 0 -75 203 l0
179 60 0 60 0 0 40 0 40 -60 0 -60 0 0 100 c0 111 3 108 -72 88z"/>
<path d="M12910 894 c-19 -8 -52 -31 -72 -52 l-38 -36 0 42 0 42 -50 0 -50 0
0 -265 0 -265 50 0 50 0 0 150 c0 241 22 298 118 308 65 6 97 -13 111 -65 6
-21 11 -118 11 -215 l0 -178 55 0 55 0 0 168 c0 92 5 184 10 204 23 81 125
117 185 65 36 -31 44 -79 45 -274 l0 -163 55 0 55 0 0 168 c0 249 -13 304 -84
356 -21 16 -42 21 -94 21 -77 0 -124 -22 -158 -73 l-21 -31 -24 37 c-43 66
-131 90 -209 56z"/>
<path d="M13880 900 c-55 -7 -88 -24 -117 -58 l-23 -27 0 38 0 37 -55 0 -55 0
0 -365 0 -365 55 0 55 0 0 132 0 131 23 -21 c76 -72 242 -69 309 5 52 57 78
185 58 293 -26 147 -114 217 -250 200z m59 -98 c48 -24 69 -57 82 -127 15 -78
-2 -164 -39 -206 -51 -57 -158 -55 -206 2 -49 57 -57 204 -17 279 34 63 114
87 180 52z"/>
<path d="M14669 903 c-15 -2 -51 -18 -80 -36 -43 -26 -59 -44 -84 -91 -27 -54
-30 -68 -30 -155 0 -103 11 -138 64 -194 46 -50 97 -70 192 -75 95 -5 143 6
200 44 31 21 87 99 78 109 -2 2 -30 6 -61 10 -48 6 -58 5 -58 -8 0 -25 -65
-74 -108 -82 -100 -17 -202 56 -202 145 0 19 6 20 216 20 l217 0 -7 68 c-19
187 -140 275 -337 245z m149 -93 c33 -15 47 -29 62 -62 11 -24 20 -53 20 -65
0 -23 -1 -23 -160 -23 -177 0 -175 -1 -149 67 34 90 133 126 227 83z"/>
<path d="M16600 894 c-19 -8 -52 -31 -72 -52 l-38 -36 0 42 0 42 -50 0 -50 0
0 -265 0 -265 50 0 50 0 0 150 c0 241 22 298 118 308 65 6 97 -13 111 -65 6
-21 11 -118 11 -215 l0 -178 55 0 55 0 0 168 c0 92 5 184 10 204 23 81 125
117 185 65 36 -31 44 -79 45 -274 l0 -163 55 0 55 0 0 168 c0 249 -13 304 -84
356 -21 16 -42 21 -94 21 -77 0 -124 -22 -158 -73 l-21 -31 -24 37 c-43 66
-131 90 -209 56z"/>
<path d="M17465 901 c-51 -13 -93 -39 -118 -73 -27 -36 -43 -78 -30 -78 4 -1
27 -5 50 -9 41 -8 43 -7 63 26 11 19 35 40 55 48 44 19 128 19 164 0 28 -14
56 -68 45 -86 -12 -21 -69 -40 -174 -59 -72 -13 -128 -29 -155 -44 -53 -31
-80 -87 -72 -147 11 -86 71 -129 177 -129 85 0 130 13 183 54 l44 34 12 -39
12 -39 53 0 54 0 -14 47 c-9 31 -14 97 -14 204 0 87 -5 170 -11 186 -13 36
-46 71 -84 90 -34 18 -191 27 -240 14z m226 -363 c-22 -73 -117 -126 -209
-115 -53 6 -82 31 -82 69 0 65 32 88 157 111 45 9 94 22 110 30 l28 15 3 -36
c2 -20 -1 -53 -7 -74z"/>
<path d="M9350 883 c0 -4 39 -123 88 -265 l87 -259 60 3 60 3 54 195 c29 107
55 202 58 210 3 8 28 -79 57 -195 l51 -210 63 -3 c34 -2 62 -1 62 1 0 1 41
117 90 256 50 139 90 257 90 262 0 5 -24 9 -53 9 l-54 0 -64 -219 c-35 -120
-67 -217 -70 -215 -4 2 -31 101 -60 219 l-54 215 -56 0 -56 0 -47 -182 c-26
-101 -52 -201 -58 -223 -10 -39 -10 -39 -58 125 -26 91 -55 191 -64 223 l-17
57 -55 0 c-30 0 -54 -3 -54 -7z"/>
<path d="M10250 625 l0 -265 55 0 55 0 0 265 0 265 -55 0 -55 0 0 -265z"/>
<path d="M12450 625 l0 -265 55 0 55 0 0 265 0 265 -55 0 -55 0 0 -265z"/>
<path d="M11200 425 l0 -65 35 0 c21 0 35 -5 35 -12 -1 -27 -39 -96 -64 -116
-24 -18 -26 -23 -14 -41 18 -29 26 -27 73 23 49 50 65 101 65 205 l0 71 -65 0
-65 0 0 -65z"/>
<path d="M15140 425 l0 -65 35 0 c21 0 35 -5 35 -12 -1 -27 -39 -96 -64 -116
-24 -18 -26 -23 -14 -41 18 -29 26 -27 73 23 49 50 65 101 65 205 l0 71 -65 0
-65 0 0 -65z"/>
</g>
</svg>
